<mxfile host="app.diagrams.net" agent="Mozilla/5.0 (Windows NT 10.0; Win64; x64) AppleWebKit/537.36 (KHTML, like Gecko) Chrome/126.0.0.0 Safari/537.36" version="24.7.6">
  <diagram id="C5RBs43oDa-KdzZeNtuy" name="Page-1">
    <mxGraphModel dx="1467" dy="780" grid="1" gridSize="10" guides="1" tooltips="1" connect="1" arrows="1" fold="1" page="1" pageScale="1" pageWidth="827" pageHeight="1169" math="0" shadow="0">
      <root>
        <mxCell id="WIyWlLk6GJQsqaUBKTNV-0" />
        <mxCell id="WIyWlLk6GJQsqaUBKTNV-1" parent="WIyWlLk6GJQsqaUBKTNV-0" />
        <mxCell id="-Nt42nx7RllwpC27y-UC-1" value="" style="edgeStyle=orthogonalEdgeStyle;rounded=0;orthogonalLoop=1;jettySize=auto;html=1;" parent="WIyWlLk6GJQsqaUBKTNV-1" source="-Nt42nx7RllwpC27y-UC-0" edge="1">
          <mxGeometry relative="1" as="geometry">
            <mxPoint x="220" y="155" as="targetPoint" />
          </mxGeometry>
        </mxCell>
        <mxCell id="-Nt42nx7RllwpC27y-UC-0" value="Start" style="ellipse;whiteSpace=wrap;html=1;aspect=fixed;" parent="WIyWlLk6GJQsqaUBKTNV-1" vertex="1">
          <mxGeometry x="180" y="45" width="80" height="80" as="geometry" />
        </mxCell>
        <mxCell id="irmz0QnLWa6p-_LanZSf-3" value="" style="edgeStyle=orthogonalEdgeStyle;rounded=0;orthogonalLoop=1;jettySize=auto;html=1;" edge="1" parent="WIyWlLk6GJQsqaUBKTNV-1" source="irmz0QnLWa6p-_LanZSf-0" target="irmz0QnLWa6p-_LanZSf-2">
          <mxGeometry relative="1" as="geometry" />
        </mxCell>
        <mxCell id="irmz0QnLWa6p-_LanZSf-4" value="True" style="edgeLabel;html=1;align=center;verticalAlign=middle;resizable=0;points=[];" vertex="1" connectable="0" parent="irmz0QnLWa6p-_LanZSf-3">
          <mxGeometry x="-0.1446" y="1" relative="1" as="geometry">
            <mxPoint as="offset" />
          </mxGeometry>
        </mxCell>
        <mxCell id="irmz0QnLWa6p-_LanZSf-19" style="edgeStyle=orthogonalEdgeStyle;rounded=0;orthogonalLoop=1;jettySize=auto;html=1;entryX=0;entryY=0.5;entryDx=0;entryDy=0;" edge="1" parent="WIyWlLk6GJQsqaUBKTNV-1" source="irmz0QnLWa6p-_LanZSf-0" target="irmz0QnLWa6p-_LanZSf-13">
          <mxGeometry relative="1" as="geometry" />
        </mxCell>
        <mxCell id="irmz0QnLWa6p-_LanZSf-21" value="False" style="edgeLabel;html=1;align=center;verticalAlign=middle;resizable=0;points=[];" vertex="1" connectable="0" parent="irmz0QnLWa6p-_LanZSf-19">
          <mxGeometry x="-0.8098" relative="1" as="geometry">
            <mxPoint as="offset" />
          </mxGeometry>
        </mxCell>
        <mxCell id="irmz0QnLWa6p-_LanZSf-0" value="while list of users &lt;br&gt;in database&amp;nbsp; &lt;br&gt;is not empty&amp;nbsp;" style="rhombus;whiteSpace=wrap;html=1;" vertex="1" parent="WIyWlLk6GJQsqaUBKTNV-1">
          <mxGeometry x="120" y="160" width="200" height="104" as="geometry" />
        </mxCell>
        <mxCell id="irmz0QnLWa6p-_LanZSf-6" value="" style="edgeStyle=orthogonalEdgeStyle;rounded=0;orthogonalLoop=1;jettySize=auto;html=1;" edge="1" parent="WIyWlLk6GJQsqaUBKTNV-1" source="irmz0QnLWa6p-_LanZSf-2" target="irmz0QnLWa6p-_LanZSf-5">
          <mxGeometry relative="1" as="geometry" />
        </mxCell>
        <mxCell id="irmz0QnLWa6p-_LanZSf-17" value="True" style="edgeLabel;html=1;align=center;verticalAlign=middle;resizable=0;points=[];" vertex="1" connectable="0" parent="irmz0QnLWa6p-_LanZSf-6">
          <mxGeometry x="-0.2562" y="-3" relative="1" as="geometry">
            <mxPoint as="offset" />
          </mxGeometry>
        </mxCell>
        <mxCell id="irmz0QnLWa6p-_LanZSf-22" style="edgeStyle=orthogonalEdgeStyle;rounded=0;orthogonalLoop=1;jettySize=auto;html=1;entryX=0;entryY=0.75;entryDx=0;entryDy=0;" edge="1" parent="WIyWlLk6GJQsqaUBKTNV-1" source="irmz0QnLWa6p-_LanZSf-2" target="irmz0QnLWa6p-_LanZSf-13">
          <mxGeometry relative="1" as="geometry" />
        </mxCell>
        <mxCell id="irmz0QnLWa6p-_LanZSf-23" value="False" style="edgeLabel;html=1;align=center;verticalAlign=middle;resizable=0;points=[];" vertex="1" connectable="0" parent="irmz0QnLWa6p-_LanZSf-22">
          <mxGeometry x="-0.4089" y="-1" relative="1" as="geometry">
            <mxPoint x="-12" as="offset" />
          </mxGeometry>
        </mxCell>
        <mxCell id="irmz0QnLWa6p-_LanZSf-2" value="while list of users&#39;&amp;nbsp;&lt;br&gt;products in database&amp;nbsp; &lt;br&gt;is not empty&amp;nbsp;" style="rhombus;whiteSpace=wrap;html=1;" vertex="1" parent="WIyWlLk6GJQsqaUBKTNV-1">
          <mxGeometry x="120" y="314" width="200" height="104" as="geometry" />
        </mxCell>
        <mxCell id="irmz0QnLWa6p-_LanZSf-8" value="" style="edgeStyle=orthogonalEdgeStyle;rounded=0;orthogonalLoop=1;jettySize=auto;html=1;" edge="1" parent="WIyWlLk6GJQsqaUBKTNV-1" source="irmz0QnLWa6p-_LanZSf-5" target="irmz0QnLWa6p-_LanZSf-7">
          <mxGeometry relative="1" as="geometry" />
        </mxCell>
        <mxCell id="irmz0QnLWa6p-_LanZSf-5" value="check product price" style="whiteSpace=wrap;html=1;" vertex="1" parent="WIyWlLk6GJQsqaUBKTNV-1">
          <mxGeometry x="160" y="464" width="120" height="60" as="geometry" />
        </mxCell>
        <mxCell id="irmz0QnLWa6p-_LanZSf-10" value="" style="edgeStyle=orthogonalEdgeStyle;rounded=0;orthogonalLoop=1;jettySize=auto;html=1;" edge="1" parent="WIyWlLk6GJQsqaUBKTNV-1" source="irmz0QnLWa6p-_LanZSf-7" target="irmz0QnLWa6p-_LanZSf-9">
          <mxGeometry relative="1" as="geometry" />
        </mxCell>
        <mxCell id="irmz0QnLWa6p-_LanZSf-18" value="True" style="edgeLabel;html=1;align=center;verticalAlign=middle;resizable=0;points=[];" vertex="1" connectable="0" parent="irmz0QnLWa6p-_LanZSf-10">
          <mxGeometry x="-0.2932" y="-2" relative="1" as="geometry">
            <mxPoint y="1" as="offset" />
          </mxGeometry>
        </mxCell>
        <mxCell id="irmz0QnLWa6p-_LanZSf-24" style="edgeStyle=orthogonalEdgeStyle;rounded=0;orthogonalLoop=1;jettySize=auto;html=1;entryX=1;entryY=0.5;entryDx=0;entryDy=0;" edge="1" parent="WIyWlLk6GJQsqaUBKTNV-1" source="irmz0QnLWa6p-_LanZSf-7" target="irmz0QnLWa6p-_LanZSf-13">
          <mxGeometry relative="1" as="geometry">
            <Array as="points">
              <mxPoint x="220" y="770" />
              <mxPoint x="580" y="770" />
              <mxPoint x="580" y="320" />
            </Array>
          </mxGeometry>
        </mxCell>
        <mxCell id="irmz0QnLWa6p-_LanZSf-25" value="False" style="edgeLabel;html=1;align=center;verticalAlign=middle;resizable=0;points=[];" vertex="1" connectable="0" parent="irmz0QnLWa6p-_LanZSf-24">
          <mxGeometry x="-0.9623" y="-1" relative="1" as="geometry">
            <mxPoint y="10" as="offset" />
          </mxGeometry>
        </mxCell>
        <mxCell id="irmz0QnLWa6p-_LanZSf-7" value="is &lt;br&gt;price &amp;lt; previous price&amp;nbsp;&lt;div&gt;or&lt;br&gt;price &amp;lt; minimum price?&amp;nbsp;&lt;/div&gt;" style="rhombus;whiteSpace=wrap;html=1;" vertex="1" parent="WIyWlLk6GJQsqaUBKTNV-1">
          <mxGeometry x="110" y="557" width="220" height="163" as="geometry" />
        </mxCell>
        <mxCell id="irmz0QnLWa6p-_LanZSf-12" value="" style="edgeStyle=orthogonalEdgeStyle;rounded=0;orthogonalLoop=1;jettySize=auto;html=1;" edge="1" parent="WIyWlLk6GJQsqaUBKTNV-1" source="irmz0QnLWa6p-_LanZSf-9" target="irmz0QnLWa6p-_LanZSf-11">
          <mxGeometry relative="1" as="geometry" />
        </mxCell>
        <mxCell id="irmz0QnLWa6p-_LanZSf-9" value="notify user" style="whiteSpace=wrap;html=1;" vertex="1" parent="WIyWlLk6GJQsqaUBKTNV-1">
          <mxGeometry x="417" y="608.5" width="120" height="60" as="geometry" />
        </mxCell>
        <mxCell id="irmz0QnLWa6p-_LanZSf-14" value="" style="edgeStyle=orthogonalEdgeStyle;rounded=0;orthogonalLoop=1;jettySize=auto;html=1;" edge="1" parent="WIyWlLk6GJQsqaUBKTNV-1" source="irmz0QnLWa6p-_LanZSf-11" target="irmz0QnLWa6p-_LanZSf-13">
          <mxGeometry relative="1" as="geometry" />
        </mxCell>
        <mxCell id="irmz0QnLWa6p-_LanZSf-11" value="record price in database" style="whiteSpace=wrap;html=1;" vertex="1" parent="WIyWlLk6GJQsqaUBKTNV-1">
          <mxGeometry x="417" y="476" width="120" height="60" as="geometry" />
        </mxCell>
        <mxCell id="irmz0QnLWa6p-_LanZSf-16" style="edgeStyle=orthogonalEdgeStyle;rounded=0;orthogonalLoop=1;jettySize=auto;html=1;entryX=1;entryY=0.5;entryDx=0;entryDy=0;" edge="1" parent="WIyWlLk6GJQsqaUBKTNV-1" source="irmz0QnLWa6p-_LanZSf-13" target="-Nt42nx7RllwpC27y-UC-0">
          <mxGeometry relative="1" as="geometry">
            <Array as="points">
              <mxPoint x="477" y="85" />
            </Array>
          </mxGeometry>
        </mxCell>
        <mxCell id="irmz0QnLWa6p-_LanZSf-13" value="wait for some period of time (e.g: 4 hours)" style="whiteSpace=wrap;html=1;" vertex="1" parent="WIyWlLk6GJQsqaUBKTNV-1">
          <mxGeometry x="417" y="290" width="120" height="60" as="geometry" />
        </mxCell>
      </root>
    </mxGraphModel>
  </diagram>
</mxfile>
